<svg width="210" height="210" viewBox="0 0 210 210" fill="none" xmlns="http://www.w3.org/2000/svg">
<path d="M210 105C210.019 119.214 207.142 133.282 201.544 146.348L201.196 147.149C191.728 168.689 175.31 186.432 154.568 197.541C133.825 208.65 109.957 212.482 86.7803 208.425C86.1497 208.313 85.5201 208.197 84.8916 208.077C78.3969 206.818 72.037 204.943 65.8984 202.476C64.9012 202.075 63.9113 201.66 62.9286 201.23C62.2576 200.938 61.5865 200.637 60.9217 200.326C42.736 191.898 27.3389 178.446 16.5451 161.557C5.75123 144.667 0.010676 125.044 0 105C0 47.0108 47.0108 0 105 0C162.989 0 210 47.0108 210 105Z" fill="#00BFA6"/>
<path opacity="0.2" d="M86.7803 208.425C86.1497 208.313 85.5201 208.197 84.8916 208.077C84.4815 196.176 83.0743 171.75 78.2747 146.167C75.6497 132.166 72.0058 117.814 66.9515 104.984C65.2199 100.545 63.2421 96.2059 61.0274 91.9869C55.9203 82.3411 49.7259 74.2207 42.2144 68.7191L43.3203 67.2094C49.5675 71.7883 55.182 78.2167 60.1638 86.4945C61.658 88.9735 63.0932 91.6182 64.4694 94.4286C65.945 97.4357 67.3522 100.628 68.6911 104.006C69.5454 106.156 70.3707 108.38 71.167 110.679C74.6339 120.66 77.5809 132.048 80.0082 144.844C80.5456 147.671 81.0571 150.567 81.5428 153.533C85.3047 176.512 86.4386 197.757 86.7803 208.425Z" fill="black"/>
<path opacity="0.2" d="M62.9286 201.23C62.2576 200.938 61.5866 200.637 60.9218 200.326C60.2725 193.275 59.0796 184.527 56.8989 176.223C55.9437 172.494 54.7176 168.839 53.2301 165.288C50.7418 159.463 47.5203 154.512 43.3545 151.458L44.4604 149.951C48.8219 153.145 52.1863 158.193 54.7864 164.098C57.7159 170.752 59.6699 178.497 60.9715 185.897C61.9376 191.392 62.5465 196.701 62.9286 201.23Z" fill="black"/>
<path opacity="0.2" d="M31.7679 68.6757C36.9302 68.6757 41.115 64.4909 41.115 59.3287C41.115 54.1664 36.9302 49.9816 31.7679 49.9816C26.6057 49.9816 22.4209 54.1664 22.4209 59.3287C22.4209 64.4909 26.6057 68.6757 31.7679 68.6757Z" fill="black"/>
<path opacity="0.2" d="M34.7777 149.137C39.9399 149.137 44.1247 144.952 44.1247 139.79C44.1247 134.628 39.9399 130.443 34.7777 130.443C29.6155 130.443 25.4307 134.628 25.4307 139.79C25.4307 144.952 29.6155 149.137 34.7777 149.137Z" fill="black"/>
<path opacity="0.2" d="M68.8756 75.0288C66.8935 86.2114 71.269 96.3371 71.269 96.3371C71.269 96.3371 78.8582 88.3321 80.8403 77.1495C82.8223 65.967 78.4468 55.8413 78.4468 55.8413C78.4468 55.8413 70.8577 63.8462 68.8756 75.0288Z" fill="black"/>
<path opacity="0.2" d="M37.8118 101.574C48.4779 105.474 59.196 102.971 59.196 102.971C59.196 102.971 52.6207 94.1447 41.9545 90.2445C31.2883 86.3443 20.5703 88.8472 20.5703 88.8472C20.5703 88.8472 27.1456 97.6737 37.8118 101.574Z" fill="black"/>
<path opacity="0.2" d="M36.003 172.825C43.4791 175.559 51.0022 173.776 51.0022 173.776C51.0022 173.776 46.404 167.56 38.9279 164.826C31.4518 162.093 23.9287 163.876 23.9287 163.876C23.9287 163.876 28.5269 170.092 36.003 172.825Z" fill="black"/>
<path d="M104.785 128.252C127.392 128.252 145.719 109.925 145.719 87.3174C145.719 64.7099 127.392 46.3829 104.785 46.3829C82.1771 46.3829 63.8501 64.7099 63.8501 87.3174C63.8501 109.925 82.1771 128.252 104.785 128.252Z" fill="#D0CDE1"/>
<path d="M88.7944 118.658C88.7944 118.658 93.9112 142.963 93.9112 145.521C93.9112 148.08 118.216 159.592 118.216 159.592L139.963 155.755L147.638 132.729C147.638 132.729 134.846 113.541 134.846 105.866L88.7944 118.658Z" fill="#D0CDE1"/>
<path d="M201.544 146.348L201.196 147.149C191.728 168.689 175.31 186.432 154.567 197.541C133.825 208.65 109.957 212.482 86.7802 208.425C86.1495 208.313 85.52 208.197 84.8914 208.077C78.3967 206.818 72.0369 204.943 65.8982 202.476C64.901 202.075 63.9111 201.66 62.9284 201.23C62.2574 200.938 61.5864 200.637 60.9216 200.326C54.8958 197.535 49.1489 194.177 43.7581 190.299L38.9058 176.223L41.6333 174.142L47.2436 169.858L53.2299 165.288L54.7862 164.098L78.2745 146.167L80.008 144.844L92.2166 135.525L92.2197 135.521C92.2197 135.521 105.422 157.034 124.611 150.638C143.8 144.241 143.381 125.901 143.381 125.901L201.544 146.348Z" fill="#2F2E41"/>
<path d="M69.2864 54.3378C69.2864 54.3378 82.2829 26.1786 107.193 32.6769C132.103 39.1752 146.183 48.9226 147.266 58.67C148.349 68.4174 146.724 83.0385 146.724 83.0385C146.724 83.0385 144.017 63.0022 126.688 67.3344C109.359 71.6666 82.2829 68.4174 82.2829 68.4174L77.9507 107.407C77.9507 107.407 73.077 100.367 67.6618 104.699C62.2466 109.032 51.9576 63.0022 69.2864 54.3378Z" fill="#2F2E41"/>
<path d="M65.8985 202.476C64.9013 202.075 63.9113 201.66 62.9286 201.23C62.2576 200.938 61.5866 200.637 60.9218 200.326C50.9559 195.705 41.7748 189.552 33.7119 182.091C36.5668 178.202 38.906 176.223 38.906 176.223H58.0949L60.9715 185.897L65.8985 202.476Z" fill="#2F2E41"/>
<path d="M184.735 144.241L201.196 147.149C196.791 157.185 190.841 166.469 183.563 174.663L184.735 144.241Z" fill="#2F2E41"/>
</svg>
