<svg width="210" height="210" viewBox="0 0 210 210" fill="none" xmlns="http://www.w3.org/2000/svg">
<path d="M210 105C210.016 118.489 207.426 131.853 202.373 144.359C202.361 144.387 202.351 144.412 202.339 144.44V144.443C198.942 152.817 194.474 160.716 189.046 167.941C187.999 169.339 186.919 170.708 185.806 172.048C185.399 172.539 184.986 173.026 184.573 173.508C182.445 175.978 180.206 178.344 177.857 180.606C177.31 181.134 176.757 181.656 176.198 182.172C176.067 182.293 175.937 182.411 175.806 182.532C173.07 185.033 170.203 187.387 167.217 189.584C165.213 191.066 163.157 192.473 161.047 193.806C160.584 194.101 160.118 194.391 159.649 194.676C158.835 195.173 158.014 195.658 157.186 196.133C156.105 196.754 155.01 197.355 153.902 197.937C153.455 198.177 153.005 198.407 152.554 198.636C151.896 198.975 151.234 199.301 150.566 199.621C150.451 199.677 150.336 199.733 150.221 199.786C149.786 199.997 149.345 200.202 148.904 200.407C143.159 203.057 137.184 205.177 131.054 206.741C131.02 206.751 130.989 206.757 130.955 206.766C130.554 206.869 130.15 206.968 129.746 207.064C129.445 207.139 129.14 207.21 128.836 207.279C128.798 207.291 128.76 207.3 128.721 207.307C128.097 207.453 127.472 207.592 126.842 207.72C126.487 207.794 126.133 207.869 125.779 207.94C125.565 207.987 125.347 208.027 125.133 208.068C124.863 208.121 124.596 208.17 124.325 208.223C124.176 208.254 124.027 208.279 123.875 208.304C123.533 208.366 123.191 208.428 122.853 208.487C122.275 208.587 121.691 208.683 121.11 208.77C120.688 208.835 120.268 208.897 119.846 208.956C119.349 209.028 118.852 209.093 118.351 209.155C118.215 209.177 118.078 209.192 117.941 209.208C117.764 209.23 117.587 209.251 117.41 209.273C117.053 209.317 116.696 209.357 116.335 209.394C116.149 209.416 115.966 209.435 115.779 209.453C115.425 209.491 115.071 209.525 114.717 209.556C114.26 209.599 113.803 209.637 113.344 209.674C112.785 209.717 112.229 209.758 111.666 209.792C111.306 209.814 110.946 209.835 110.582 209.854C109.656 209.904 108.731 209.938 107.799 209.963C107.336 209.975 106.87 209.984 106.404 209.991H106.394C105.932 209.997 105.466 210 105 210C100.277 210.002 95.5604 209.686 90.8806 209.056C87.4479 208.596 84.0701 207.972 80.7471 207.186C80.6136 207.154 80.48 207.123 80.3495 207.089C80.014 207.012 79.6816 206.928 79.3492 206.844C79.0541 206.769 78.7621 206.692 78.467 206.614C70.8611 204.635 63.5036 201.801 56.535 198.167C56.5008 198.149 56.4636 198.13 56.4294 198.111C56.2275 198.006 56.0286 197.903 55.8298 197.795C55.3918 197.565 54.9559 197.331 54.522 197.092C52.0523 195.735 49.6458 194.283 47.3025 192.737C46.6998 192.343 46.1034 191.942 45.5131 191.535C45.3236 191.404 45.1372 191.274 44.9508 191.143C44.7551 191.007 44.5594 190.87 44.3668 190.733C43.8542 190.37 43.3448 190.002 42.8384 189.631C40.7415 188.09 38.7067 186.473 36.7341 184.781C29.7422 178.793 23.5637 171.916 18.356 164.325C16.5387 161.678 14.8425 158.947 13.2675 156.13C4.5392 140.504 -0.0293858 122.898 -0.000350746 105C-0.000350746 47.0108 47.0105 0 105 0C162.989 0 210 47.0108 210 105Z" fill="#00BFA6"/>
<path opacity="0.2" d="M121.884 207.089C122.219 207.012 122.552 206.928 122.884 206.844C123.179 206.769 123.471 206.692 123.766 206.614C123.782 205.996 123.804 205.315 123.825 204.579C124.009 198.813 124.44 189.531 125.459 178.348C125.515 177.748 125.571 177.145 125.627 176.537C125.991 172.747 126.416 168.761 126.926 164.629C126.941 164.493 126.96 164.359 126.975 164.223C127.389 160.874 127.858 157.435 128.386 153.931C128.755 151.48 129.155 149.002 129.585 146.497C129.616 146.323 129.647 146.146 129.678 145.972C129.802 145.248 129.93 144.527 130.06 143.8C130.424 141.778 130.812 139.743 131.219 137.708C132.651 130.551 134.356 123.35 136.391 116.345C138.458 109.08 141.004 101.96 144.011 95.0312C146.344 89.6488 149.123 84.4709 152.318 79.5515C152.365 79.48 152.411 79.4117 152.458 79.3402C156.543 73.1862 161.212 67.9642 166.543 64.0593L165.437 62.5496C160.33 66.2929 155.645 71.2737 151.383 77.4919C151.361 77.5229 151.343 77.5509 151.321 77.582C148.116 82.3347 145.318 87.3499 142.958 92.574C139.798 99.5617 137.132 106.763 134.981 114.124C132.943 120.964 131.115 128.375 129.498 136.357C128.929 139.169 128.387 142.049 127.87 144.999C127.783 145.503 127.696 146.006 127.609 146.512C127.609 146.519 127.606 146.528 127.606 146.534C127.472 147.311 127.345 148.087 127.215 148.873C126.891 150.852 126.587 152.815 126.301 154.763C125.86 157.764 125.461 160.713 125.105 163.611C124.987 164.567 124.873 165.517 124.764 166.459C124.608 167.789 124.461 169.101 124.322 170.395C124.127 172.197 123.948 173.96 123.785 175.686L123.738 176.161C123.714 176.434 123.689 176.708 123.664 176.978C122.403 190.581 122.008 201.569 121.884 207.089Z" fill="black"/>
<path opacity="0.2" d="M145.698 198.167C145.732 198.149 145.77 198.13 145.804 198.111C146.444 197.779 147.078 197.44 147.711 197.092C147.919 194.613 148.199 191.889 148.566 189.025C148.643 188.435 148.721 187.835 148.808 187.232C148.851 186.909 148.898 186.583 148.945 186.254C149.311 183.731 149.746 181.128 150.268 178.512C152.39 167.838 155.912 156.928 161.762 150.194C162.076 149.83 162.396 149.482 162.728 149.144C163.552 148.288 164.447 147.503 165.403 146.798L164.297 145.291C162.962 146.279 161.734 147.402 160.631 148.643C160.243 149.075 159.864 149.525 159.494 149.992C154.111 156.767 150.749 166.798 148.656 176.729C148.109 179.32 147.649 181.908 147.258 184.427C147.158 185.086 147.063 185.738 146.972 186.384C146.366 190.653 145.965 194.685 145.698 198.167Z" fill="black"/>
<path opacity="0.2" d="M176.99 64.0159C182.152 64.0159 186.337 59.8311 186.337 54.6689C186.337 49.5067 182.152 45.3218 176.99 45.3218C171.827 45.3218 167.643 49.5067 167.643 54.6689C167.643 59.8311 171.827 64.0159 176.99 64.0159Z" fill="black"/>
<path opacity="0.2" d="M173.979 144.477C179.142 144.477 183.326 140.293 183.326 135.13C183.326 129.968 179.142 125.783 173.979 125.783C168.817 125.783 164.632 129.968 164.632 135.13C164.632 140.293 168.817 144.477 173.979 144.477Z" fill="black"/>
<path opacity="0.2" d="M139.882 70.369C141.864 81.5516 137.488 91.6773 137.488 91.6773C137.488 91.6773 129.899 83.6724 127.917 72.4898C125.935 61.3072 130.311 51.1815 130.311 51.1815C130.311 51.1815 137.9 59.1864 139.882 70.369Z" fill="black"/>
<path opacity="0.2" d="M170.946 96.9141C160.28 100.814 149.562 98.3114 149.562 98.3114C149.562 98.3114 156.137 89.4849 166.803 85.5847C177.469 81.6845 188.187 84.1874 188.187 84.1874C188.187 84.1874 181.612 93.0139 170.946 96.9141Z" fill="black"/>
<path opacity="0.2" d="M172.755 168.166C165.278 170.899 157.755 169.116 157.755 169.116C157.755 169.116 162.354 162.9 169.83 160.167C177.306 157.433 184.829 159.216 184.829 159.216C184.829 159.216 180.231 165.432 172.755 168.166Z" fill="black"/>
<path d="M136.674 166.593L137.053 166.788C137.016 167.192 136.925 167.441 136.674 166.593Z" fill="#2F2E41"/>
<path d="M137.174 166.723C137.177 166.767 137.183 166.813 137.186 166.857L137.053 166.788C137.056 166.748 137.059 166.705 137.065 166.661C137.096 166.117 137.059 165.474 137.174 166.723Z" fill="#2F2E41"/>
<path d="M96.8247 151.862C124.998 151.862 147.836 129.023 147.836 100.85C147.836 72.677 124.998 49.8383 96.8247 49.8383C68.6517 49.8383 45.813 72.677 45.813 100.85C45.813 129.023 68.6517 151.862 96.8247 151.862Z" fill="#2F2E41"/>
<path d="M101.024 149.782C118.085 149.782 131.916 135.951 131.916 118.89C131.916 101.829 118.085 87.9975 101.024 87.9975C83.9624 87.9975 70.1313 101.829 70.1313 118.89C70.1313 135.951 83.9624 149.782 101.024 149.782Z" fill="#D0CDE1"/>
<path d="M171.563 178.099L171.526 178.109L164.341 179.833L149.38 183.424L147.339 183.915L124.587 189.373L122.654 189.839L67.4548 203.085C63.7233 201.658 60.0774 200.016 56.5355 198.167C56.5013 198.149 56.464 198.13 56.4298 198.111C56.2279 198.006 56.0291 197.903 55.8303 197.795C55.3923 197.565 54.9563 197.331 54.5224 197.092C52.0528 195.735 49.6463 194.283 47.3029 192.737C46.7003 192.343 46.1038 191.942 45.5136 191.535C45.3241 191.404 45.1377 191.274 44.9513 191.143C44.7556 191.007 44.5599 190.87 44.3673 190.733C43.8547 190.37 43.3452 190.002 42.8389 189.631C48.2007 179.885 60.9684 173.408 73.7362 169.864C83.3726 167.186 85.4912 158.385 85.3079 150.554C85.2613 148.767 85.1099 146.985 84.8544 145.217C84.4651 142.402 83.8459 139.624 83.0029 136.91L113.897 137.941L117.084 145.285C116.997 146.092 116.969 146.904 117.001 147.714C117.243 153.738 120.961 157.634 125.55 160.147C126.146 160.473 126.758 160.777 127.379 161.06C134.903 164.48 143.76 164.713 143.76 164.713C146.457 164.415 149.181 164.466 151.865 164.866C152.517 164.965 153.151 165.084 153.766 165.223C157.357 166.025 160.75 167.544 163.741 169.687C164.884 170.5 165.965 171.396 166.975 172.368C168.771 174.049 170.316 175.979 171.563 178.099Z" fill="#D0CDE1"/>
<path d="M176.198 182.172C176.067 182.293 175.937 182.411 175.806 182.532C173.07 185.033 170.203 187.387 167.217 189.584C165.213 191.066 163.157 192.473 161.047 193.806C160.585 194.101 160.119 194.391 159.65 194.676C158.836 195.173 158.014 195.658 157.186 196.133C156.105 196.754 155.01 197.355 153.902 197.937C153.455 198.177 153.005 198.407 152.554 198.636C151.896 198.975 151.234 199.301 150.566 199.621C150.451 199.677 150.336 199.733 150.221 199.786L148.907 198.695L164.34 179.833L167.444 176.04C167.444 176.04 168.683 176.04 171.526 178.109C173.097 179.278 174.581 180.559 175.968 181.942C176.043 182.02 176.12 182.094 176.198 182.172Z" fill="#D0CDE1"/>
<path d="M175.98 181.961C175.939 182.156 175.881 182.347 175.807 182.532C173.07 185.033 170.203 187.387 167.217 189.584C164.627 190.518 161.939 191.157 159.205 191.488C159.205 191.488 159.438 192.656 159.65 194.676C158.836 195.173 158.015 195.658 157.186 196.133C156.105 196.754 155.011 197.356 153.903 197.937C153.455 198.177 153.005 198.407 152.554 198.636C151.896 198.975 151.234 199.301 150.566 199.621C150.451 199.677 150.336 199.733 150.221 199.786C149.786 199.997 149.345 200.202 148.904 200.407C143.159 203.057 137.184 205.177 131.054 206.741C131.02 206.751 130.989 206.757 130.955 206.766C130.554 206.869 130.15 206.968 129.746 207.064C129.445 207.139 129.141 207.21 128.836 207.279C128.799 207.291 128.76 207.3 128.721 207.307C128.097 207.453 127.472 207.592 126.842 207.72C126.488 207.794 126.133 207.869 125.779 207.94C125.565 207.987 125.348 208.027 125.133 208.068C124.863 208.121 124.596 208.17 124.325 208.223C124.176 208.254 124.027 208.279 123.875 208.304C123.533 208.366 123.192 208.428 122.853 208.487C122.275 208.587 121.691 208.683 121.11 208.77C120.688 208.835 120.268 208.897 119.846 208.956C119.349 209.028 118.852 209.093 118.352 209.155C118.215 209.177 118.078 209.192 117.942 209.208C117.765 209.23 117.587 209.251 117.41 209.273C117.053 209.317 116.696 209.357 116.336 209.394C116.149 209.416 115.966 209.435 115.779 209.453C115.425 209.491 115.071 209.525 114.717 209.556C114.26 209.599 113.804 209.637 113.344 209.674C112.785 209.717 112.229 209.758 111.666 209.792C111.306 209.814 110.946 209.835 110.582 209.854C109.657 209.904 108.731 209.938 107.799 209.963C107.336 209.975 106.87 209.985 106.404 209.991H106.395C105.932 209.997 105.466 210 105 210C100.278 210.002 95.5607 209.687 90.8808 209.056C87.4481 208.596 84.0703 207.973 80.7474 207.186C80.6138 207.154 80.4802 207.123 80.3498 207.089C80.0143 207.012 79.6818 206.928 79.3494 206.844C79.0543 206.769 78.7623 206.692 78.4672 206.614C70.8614 204.635 63.5039 201.801 56.5353 198.167C56.5011 198.149 56.4638 198.13 56.4296 198.111C56.2277 198.006 56.0289 197.903 55.8301 197.795C72.8817 193.821 99.8276 187.556 123.21 182.187C123.866 182.038 124.517 181.889 125.164 181.74C133.8 179.758 141.89 177.913 148.733 176.369C149.442 176.211 150.135 176.055 150.815 175.903C158.168 174.25 163.878 172.995 166.975 172.368C167.81 172.177 168.654 172.029 169.503 171.924L175.968 181.942L175.98 181.961Z" fill="#2F2E41"/>
<path d="M50.1544 79.1429C58.5464 79.1429 65.3494 72.3399 65.3494 63.9479C65.3494 55.556 58.5464 48.7529 50.1544 48.7529C41.7625 48.7529 34.9595 55.556 34.9595 63.9479C34.9595 72.3399 41.7625 79.1429 50.1544 79.1429Z" fill="#2F2E41"/>
<path d="M143.495 74.8015C151.887 74.8015 158.69 67.9985 158.69 59.6065C158.69 51.2146 151.887 44.4116 143.495 44.4116C135.103 44.4116 128.3 51.2146 128.3 59.6065C128.3 67.9985 135.103 74.8015 143.495 74.8015Z" fill="#2F2E41"/>
<path d="M127.215 53.0944C127.215 49.3467 128.601 45.7314 131.105 42.9432C133.609 40.1551 137.055 38.3907 140.781 37.9893C138.659 37.7575 136.512 37.9754 134.48 38.6288C132.448 39.2822 130.576 40.3565 128.987 41.7816C127.398 43.2067 126.127 44.9507 125.257 46.8999C124.386 48.8491 123.937 50.9598 123.937 53.0944C123.937 55.229 124.386 57.3397 125.257 59.2889C126.127 61.2381 127.398 62.9821 128.987 64.4072C130.576 65.8323 132.448 66.9066 134.48 67.56C136.512 68.2134 138.659 68.4313 140.781 68.1995C137.055 67.7981 133.609 66.0337 131.105 63.2456C128.601 60.4574 127.215 56.8421 127.215 53.0944V53.0944Z" fill="#2F2E41"/>
<path d="M33.176 76.2388C30.5536 73.5616 29.013 70.0096 28.8504 66.2654C28.6878 62.5213 29.9147 58.8491 32.2952 55.9546C30.6173 57.2741 29.2362 58.9324 28.242 60.8214C27.2477 62.7103 26.6627 64.7876 26.5249 66.9177C26.3871 69.0479 26.6996 71.1832 27.4422 73.1845C28.1848 75.1858 29.3407 77.0082 30.8347 78.533C32.3286 80.0577 34.127 81.2505 36.1128 82.0338C38.0985 82.817 40.227 83.1731 42.3596 83.0787C44.4921 82.9844 46.5809 82.4418 48.4897 81.4863C50.3985 80.5308 52.0846 79.1839 53.4381 77.5332C50.4957 79.8542 46.7992 81.0059 43.0592 80.767C39.3191 80.5281 35.7993 78.9154 33.176 76.2388V76.2388Z" fill="#2F2E41"/>
<path d="M96.8243 76.9722C78.8416 76.9722 64.2637 85.476 64.2637 95.9659C64.2637 100.66 67.1939 104.949 72.0309 108.263L78.2992 103.721L76.5945 110.837C77.3018 111.164 78.024 111.482 78.7773 111.775L88.1415 100.85V114.271C91.0128 114.731 93.9163 114.962 96.8243 114.96C114.807 114.96 129.385 106.456 129.385 95.9659C129.385 85.476 114.807 76.9722 96.8243 76.9722Z" fill="#2F2E41"/>
<path d="M128.3 59.6065C128.3 59.6065 125.94 70.4601 140.687 74.8015L128.3 59.6065Z" fill="#2F2E41"/>
<path d="M64.2637 61.5819C64.2637 61.5819 69.6905 73.7161 53.4102 79.1429L64.2637 61.5819Z" fill="#2F2E41"/>
<path d="M72.3118 131.018C73.6809 130.635 74.0451 127.66 73.1252 124.374C72.2053 121.089 70.3497 118.735 68.9805 119.119C67.6114 119.502 67.2472 122.477 68.1671 125.763C69.087 129.048 70.9426 131.402 72.3118 131.018Z" fill="#D0CDE1"/>
<path d="M135.001 120.078C135.21 116.672 134.23 113.84 132.811 113.753C131.392 113.666 130.071 116.356 129.862 119.762C129.652 123.167 130.632 125.999 132.051 126.087C133.471 126.174 134.791 123.484 135.001 120.078Z" fill="#D0CDE1"/>
</svg>
