<svg width="217" height="186" viewBox="0 0 217 186" fill="none" xmlns="http://www.w3.org/2000/svg">
<path d="M41.7726 99.7141C43.8264 98.5284 44.5295 95.9029 43.344 93.8496C42.1585 91.7962 39.5332 91.0924 37.4794 92.2781L14.0248 105.82C10.8764 107.637 9.794 111.677 11.6114 114.825L33.9016 153.432C35.719 156.58 39.7586 157.663 42.907 155.845L66.3616 142.304C68.4154 141.118 69.1185 138.492 67.933 136.439C66.7475 134.386 64.1222 133.682 62.0684 134.868L40.3409 147.412L32.3396 133.553L54.0671 121.009C56.1209 119.823 56.824 117.198 55.6385 115.144C54.453 113.091 51.8277 112.387 49.7739 113.573L28.0464 126.117L20.0451 112.259L41.7726 99.7141Z" fill="white"/>
<path d="M118.747 71.6914C114.998 73.856 112.509 77.3766 111.54 81.2795C104.75 79.3241 97.6579 82.2479 94.1498 88.1261C92.9025 87.5011 91.3747 87.4949 90.0759 88.2447C88.0221 89.4305 87.319 92.056 88.5045 94.1093L101.691 116.949C102.876 119.002 105.502 119.706 107.555 118.52C109.609 117.334 110.312 114.709 109.127 112.656L101.458 99.3729C99.5991 96.1531 100.707 92.0218 103.926 90.1631C107.146 88.3042 111.277 89.4113 113.136 92.6306L120.805 105.913C121.99 107.967 124.616 108.67 126.669 107.485C128.723 106.299 129.426 103.673 128.241 101.62L120.572 88.3374C118.713 85.1176 119.82 80.9863 123.04 79.1277C126.259 77.269 130.391 78.3761 132.25 81.5954L139.918 94.8781C141.104 96.9314 143.729 97.6353 145.783 96.4495C147.837 95.2637 148.54 92.6382 147.354 90.5849L139.685 77.3022C135.46 69.9825 126.067 67.4655 118.747 71.6914V71.6914Z" fill="white"/>
<path d="M156.135 60.0202C157.988 58.9504 160.182 58.8184 162.155 59.6579C164.336 60.5869 166.857 59.5708 167.786 57.3887C168.715 55.2067 167.699 52.686 165.517 51.7573C161.104 49.8792 155.991 50.1884 151.842 52.5842C144.522 56.8104 142.005 66.2037 146.231 73.5231L148.382 77.2486C152.608 84.5686 162.002 87.0855 169.321 82.8596C173.471 80.4635 176.295 76.1907 176.875 71.4294C177.161 69.0757 175.486 66.9351 173.132 66.6485C170.778 66.3613 168.638 68.0382 168.351 70.391C168.092 72.5195 166.881 74.3533 165.028 75.4231C161.808 77.2818 157.677 76.1747 155.818 72.9549L153.667 69.2295C151.808 66.011 152.915 61.8792 156.135 60.0202V60.0202Z" fill="white"/>
<path d="M161.289 18.1176C155.822 21.2739 153.942 28.2895 157.099 33.7565L160.676 39.9531C161.862 42.0064 164.487 42.7103 166.541 41.5245L178.934 34.3692C180.988 33.1835 181.691 30.558 180.506 28.5047C179.32 26.4513 176.695 25.7475 174.641 26.9333L165.966 31.942L164.535 29.4633C163.746 28.0966 164.216 26.3427 165.582 25.5536C171.049 22.3972 172.929 15.3816 169.773 9.91468C166.616 4.44774 159.601 2.56792 154.134 5.72426L147.937 9.3019C145.883 10.4877 145.18 13.1132 146.366 15.1665C147.551 17.2198 150.177 17.9237 152.23 16.7379L158.427 13.1602C159.794 12.3712 161.548 12.8411 162.337 14.2079C163.126 15.5746 162.656 17.3285 161.289 18.1176Z" fill="white"/>
<path d="M80.4415 100.178L65.8342 108.612C63.7804 109.798 63.0773 112.423 64.2628 114.477C65.4483 116.53 68.0736 117.234 70.1274 116.048L84.7346 107.614C86.7885 106.429 87.4915 103.803 86.3061 101.75C85.1206 99.6965 82.4948 98.993 80.4415 100.178Z" fill="white"/>
<path d="M87.5967 112.572L72.9895 121.005C70.9357 122.191 70.2326 124.817 71.4181 126.87C72.6036 128.923 75.2288 129.627 77.2827 128.441L91.8899 120.008C93.9437 118.822 94.6468 116.196 93.4613 114.143C92.2758 112.09 89.6501 111.386 87.5967 112.572Z" fill="white"/>
<path d="M129.403 137.451C131.239 138.951 133.945 138.679 135.445 136.844C154.106 114.018 176.515 94.969 202.048 80.2274C204.102 79.0417 204.805 76.4162 203.619 74.3629C202.434 72.3095 199.808 71.6057 197.755 72.7915C171.319 88.0542 148.118 107.776 128.797 131.409C127.296 133.245 127.568 135.949 129.403 137.451V137.451Z" fill="white"/>
</svg>
