<svg width="655" height="513" viewBox="0 0 655 513" fill="none" xmlns="http://www.w3.org/2000/svg">
<path d="M474.114 404.286V534.286H148.415C111.306 534.286 81.1143 505.126 81.1143 469.286C81.1143 433.446 111.306 404.286 148.415 404.286H474.114Z" fill="#F2F2F2"/>
<path d="M482.114 533.286C482.114 534.612 481.587 535.883 480.649 536.821C479.712 537.758 478.44 538.285 477.114 538.286H142.614C124.447 538.286 107.024 531.069 94.1775 518.223C81.3312 505.376 74.1143 487.953 74.1143 469.786C74.1143 451.619 81.3312 434.195 94.1775 421.349C107.024 408.503 124.447 401.286 142.614 401.286H477.114C478.44 401.286 479.712 401.813 480.65 402.75C481.587 403.688 482.114 404.96 482.114 406.286C482.114 407.612 481.587 408.884 480.65 409.821C479.712 410.759 478.44 411.286 477.114 411.286H142.614C127.099 411.286 112.219 417.449 101.249 428.42C90.2776 439.391 84.1143 454.271 84.1143 469.786C84.1143 485.301 90.2776 500.181 101.249 511.152C112.219 522.122 127.099 528.286 142.614 528.286H477.114C478.44 528.286 479.712 528.813 480.649 529.751C481.587 530.688 482.114 531.96 482.114 533.286Z" fill="#00BFA6"/>
<path d="M474.114 434.286H124.114C123.849 434.286 123.595 434.181 123.407 433.993C123.22 433.805 123.114 433.551 123.114 433.286C123.114 433.021 123.22 432.766 123.407 432.579C123.595 432.391 123.849 432.286 124.114 432.286H474.114C474.38 432.286 474.634 432.391 474.821 432.579C475.009 432.766 475.114 433.021 475.114 433.286C475.114 433.551 475.009 433.805 474.821 433.993C474.634 434.181 474.38 434.286 474.114 434.286Z" fill="#CCCCCC"/>
<path d="M474.114 458.286H124.114C123.849 458.286 123.595 458.181 123.407 457.993C123.22 457.805 123.114 457.551 123.114 457.286C123.114 457.021 123.22 456.766 123.407 456.579C123.595 456.391 123.849 456.286 124.114 456.286H474.114C474.38 456.286 474.634 456.391 474.821 456.579C475.009 456.766 475.114 457.021 475.114 457.286C475.114 457.551 475.009 457.805 474.821 457.993C474.634 458.181 474.38 458.286 474.114 458.286Z" fill="#CCCCCC"/>
<path d="M474.114 482.286H124.114C123.849 482.286 123.595 482.181 123.407 481.993C123.22 481.805 123.114 481.551 123.114 481.286C123.114 481.021 123.22 480.766 123.407 480.579C123.595 480.391 123.849 480.286 124.114 480.286H474.114C474.38 480.286 474.634 480.391 474.821 480.579C475.009 480.766 475.114 481.021 475.114 481.286C475.114 481.551 475.009 481.805 474.821 481.993C474.634 482.181 474.38 482.286 474.114 482.286Z" fill="#CCCCCC"/>
<path d="M474.114 506.286H124.114C123.849 506.286 123.595 506.181 123.407 505.993C123.22 505.805 123.114 505.551 123.114 505.286C123.114 505.021 123.22 504.766 123.407 504.579C123.595 504.391 123.849 504.286 124.114 504.286H474.114C474.38 504.286 474.634 504.391 474.821 504.579C475.009 504.766 475.114 505.021 475.114 505.286C475.114 505.551 475.009 505.805 474.821 505.993C474.634 506.181 474.38 506.286 474.114 506.286Z" fill="#CCCCCC"/>
<path d="M725.832 428.757L644.267 529.985L390.652 325.635C361.756 302.352 356.542 260.703 379.028 232.795C401.515 204.887 443.321 201.124 472.217 224.407L725.832 428.757Z" fill="#F2F2F2"/>
<path d="M651.124 534.226C650.291 535.258 649.083 535.917 647.765 536.059C646.446 536.201 645.126 535.814 644.093 534.982L383.624 325.11C369.478 313.711 360.439 297.16 358.496 279.097C356.553 261.034 361.865 242.938 373.263 228.792C384.662 214.645 401.213 205.606 419.276 203.663C437.339 201.72 455.435 207.032 469.581 218.431L730.05 428.303C730.561 428.715 730.987 429.223 731.302 429.8C731.617 430.376 731.816 431.009 731.886 431.662C731.956 432.315 731.898 432.976 731.713 433.606C731.528 434.236 731.22 434.824 730.808 435.335C730.396 435.847 729.887 436.272 729.311 436.587C728.734 436.902 728.101 437.1 727.448 437.17C726.795 437.24 726.135 437.18 725.504 436.995C724.874 436.81 724.287 436.502 723.775 436.09L463.307 226.217C457.325 221.394 450.452 217.796 443.079 215.629C435.707 213.463 427.98 212.77 420.339 213.59C412.699 214.411 405.295 216.728 398.551 220.411C391.806 224.093 385.853 229.068 381.032 235.052C376.211 241.035 372.616 247.91 370.452 255.283C368.288 262.657 367.598 270.384 368.422 278.024C369.245 285.664 371.566 293.067 375.251 299.81C378.936 306.553 383.913 312.504 389.899 317.323L650.367 527.195C651.399 528.028 652.059 529.236 652.201 530.554C652.342 531.872 651.955 533.193 651.124 534.226Z" fill="#CCCCCC"/>
<path d="M707.008 452.117L434.47 232.52C434.368 232.438 434.283 232.336 434.22 232.22C434.157 232.105 434.117 231.979 434.103 231.848C434.089 231.718 434.101 231.586 434.138 231.46C434.175 231.334 434.237 231.216 434.319 231.114C434.401 231.012 434.503 230.927 434.618 230.864C434.734 230.801 434.86 230.761 434.991 230.747C435.121 230.733 435.253 230.745 435.379 230.782C435.505 230.819 435.623 230.88 435.725 230.963L708.263 450.56C708.366 450.642 708.451 450.744 708.514 450.859C708.577 450.974 708.617 451.101 708.631 451.232C708.645 451.362 708.633 451.495 708.596 451.621C708.559 451.747 708.498 451.864 708.415 451.967C708.333 452.069 708.231 452.154 708.116 452.217C708 452.28 707.874 452.32 707.743 452.334C707.612 452.348 707.48 452.336 707.354 452.299C707.228 452.261 707.111 452.2 707.008 452.117V452.117Z" fill="#CCCCCC"/>
<path d="M691.951 470.806L419.413 251.208C419.207 251.042 419.075 250.8 419.047 250.537C419.019 250.273 419.096 250.009 419.262 249.803C419.429 249.597 419.67 249.465 419.933 249.436C420.197 249.408 420.461 249.485 420.667 249.651L693.206 469.248C693.308 469.331 693.393 469.432 693.456 469.548C693.519 469.663 693.559 469.789 693.573 469.92C693.587 470.051 693.576 470.183 693.539 470.309C693.502 470.435 693.44 470.553 693.358 470.655C693.275 470.758 693.174 470.843 693.058 470.906C692.943 470.969 692.816 471.008 692.685 471.022C692.555 471.036 692.423 471.024 692.297 470.987C692.171 470.95 692.053 470.888 691.951 470.806Z" fill="#CCCCCC"/>
<path d="M676.893 489.494L404.355 269.897C404.149 269.73 404.017 269.489 403.988 269.225C403.96 268.961 404.037 268.697 404.204 268.491C404.37 268.284 404.612 268.152 404.875 268.124C405.139 268.095 405.403 268.173 405.61 268.339L678.148 487.937C678.25 488.019 678.335 488.121 678.398 488.236C678.461 488.351 678.501 488.478 678.515 488.608C678.529 488.739 678.517 488.871 678.48 488.997C678.443 489.123 678.382 489.24 678.299 489.343C678.217 489.445 678.115 489.53 678 489.593C677.885 489.656 677.758 489.695 677.628 489.71C677.497 489.724 677.365 489.712 677.239 489.675C677.113 489.638 676.995 489.576 676.893 489.494V489.494Z" fill="#CCCCCC"/>
<path d="M661.835 508.182L389.296 288.585C389.194 288.503 389.109 288.401 389.046 288.286C388.983 288.17 388.944 288.044 388.93 287.913C388.916 287.783 388.927 287.651 388.964 287.525C389.001 287.399 389.063 287.281 389.145 287.179C389.228 287.077 389.329 286.992 389.445 286.929C389.56 286.866 389.686 286.826 389.817 286.812C389.947 286.798 390.079 286.81 390.205 286.847C390.332 286.884 390.449 286.945 390.551 287.028L663.089 506.625C663.192 506.707 663.277 506.809 663.34 506.924C663.403 507.04 663.443 507.166 663.457 507.297C663.471 507.428 663.46 507.56 663.423 507.686C663.386 507.812 663.324 507.93 663.242 508.032C663.159 508.134 663.057 508.219 662.942 508.282C662.827 508.345 662.7 508.385 662.569 508.399C662.439 508.413 662.306 508.401 662.18 508.364C662.054 508.327 661.937 508.265 661.835 508.182Z" fill="#CCCCCC"/>
<path d="M338.081 390.622L326.649 390.621L321.212 346.525L338.085 346.527L338.081 390.622Z" fill="#FFB8B8"/>
<path d="M318.483 387.354H340.53V401.236H304.601C304.601 399.413 304.96 397.608 305.657 395.924C306.355 394.24 307.377 392.709 308.666 391.42C309.956 390.131 311.486 389.109 313.17 388.411C314.854 387.714 316.66 387.354 318.483 387.354Z" fill="#2F2E41"/>
<path d="M221.286 390.622L209.854 390.621L204.417 346.525L221.29 346.527L221.286 390.622Z" fill="#FFB8B8"/>
<path d="M201.688 387.354H223.735V401.236H187.806C187.806 399.413 188.165 397.608 188.862 395.924C189.56 394.24 190.583 392.709 191.872 391.42C193.161 390.131 194.691 389.109 196.375 388.411C198.059 387.714 199.865 387.354 201.688 387.354Z" fill="#2F2E41"/>
<path d="M259.471 63.533V58.533C259.471 49.9797 262.868 41.7768 268.917 35.7288C274.965 29.6807 283.167 26.283 291.721 26.283H291.721C300.274 26.283 308.477 29.6807 314.525 35.7288C320.573 41.7768 323.971 49.9797 323.971 58.533V63.533C323.971 69.6993 321.521 75.613 317.161 79.9733C312.801 84.3335 306.887 86.783 300.721 86.783H282.721C279.668 86.783 276.644 86.1817 273.823 85.0132C271.003 83.8448 268.439 82.1322 266.28 79.9733C264.122 77.8143 262.409 75.2512 261.241 72.4304C260.072 69.6096 259.471 66.5863 259.471 63.533Z" fill="#2F2E41"/>
<path d="M291.721 88.5035C305.286 88.5035 316.282 77.5072 316.282 63.9425C316.282 50.3778 305.286 39.3815 291.721 39.3815C278.157 39.3815 267.16 50.3778 267.16 63.9425C267.16 77.5072 278.157 88.5035 291.721 88.5035Z" fill="#FFB8B8"/>
<path d="M158.125 148.356C159.121 147.414 160.312 146.703 161.614 146.272C162.915 145.841 164.295 145.7 165.656 145.86C167.018 146.02 168.328 146.477 169.494 147.198C170.66 147.919 171.653 148.886 172.405 150.033L193.459 146.05L199 158.255L169.188 163.462C167.178 164.596 164.822 164.954 162.566 164.468C160.31 163.982 158.311 162.685 156.947 160.823C155.583 158.961 154.95 156.663 155.167 154.365C155.384 152.068 156.436 149.929 158.125 148.356V148.356Z" fill="#FFB8B8"/>
<path d="M272.572 103.971L272.848 104.388L238.322 127.133L180.064 145.736C179.291 145.984 178.629 146.492 178.189 147.174C177.749 147.855 177.559 148.668 177.652 149.474L178.923 160.421C178.979 160.905 179.136 161.373 179.383 161.793C179.631 162.213 179.964 162.577 180.36 162.861C180.756 163.146 181.208 163.344 181.685 163.443C182.163 163.543 182.656 163.542 183.133 163.439L237.962 151.687C240.616 151.121 243.125 150.016 245.334 148.441L284.122 120.844C285.528 119.838 286.65 118.486 287.379 116.918C288.107 115.35 288.418 113.62 288.28 111.897C288.138 110.171 287.549 108.512 286.571 107.083C285.593 105.654 284.26 104.504 282.703 103.746C281.146 102.989 279.418 102.649 277.69 102.762C275.962 102.875 274.293 103.435 272.848 104.388L272.572 103.971Z" fill="#CCCCCC"/>
<path d="M326.853 378.109C325.976 378.109 325.117 377.853 324.382 377.374C323.647 376.894 323.068 376.211 322.715 375.407L270.305 245.906C270.183 245.626 269.978 245.389 269.717 245.228C269.456 245.068 269.152 244.991 268.846 245.008C268.54 245.025 268.247 245.136 268.006 245.325C267.764 245.514 267.587 245.772 267.497 246.065L224.739 372.138C224.558 372.725 224.259 373.269 223.861 373.736C223.463 374.203 222.973 374.583 222.422 374.854C221.871 375.125 221.271 375.28 220.658 375.31C220.045 375.341 219.432 375.245 218.857 375.03L204.519 369.653C203.74 369.363 203.058 368.864 202.546 368.21C202.035 367.556 201.715 366.773 201.622 365.948C195.171 309.756 251.422 167.918 251.991 166.492L252.148 166.097L303.425 177.44L303.532 177.556C323.99 199.874 340.805 340.638 343.969 368.63C344.087 369.641 343.857 370.662 343.316 371.525C342.776 372.388 341.958 373.041 340.998 373.377L328.341 377.853C327.863 378.022 327.36 378.109 326.853 378.109Z" fill="#2F2E41"/>
<path d="M282.672 182.006C270.248 182.006 256.398 179.529 252.134 169.305L252.036 169.07L252.169 168.852C255.534 163.331 259.982 153.912 257.591 152.144C252.882 148.662 250.597 142.934 250.8 135.118C251.24 118.153 262.8 103.09 279.565 97.6359H279.566C284.245 96.1383 289.008 94.9122 293.829 93.9636C297.343 93.2544 300.971 93.3324 304.452 94.192C307.933 95.0516 311.181 96.6715 313.961 98.9353C316.777 101.214 319.052 104.088 320.625 107.351C322.198 110.613 323.028 114.184 323.057 117.806C323.233 135.937 320.442 161.189 306.145 178.526C305.475 179.33 304.542 179.873 303.512 180.057C296.634 181.301 289.662 181.953 282.672 182.006Z" fill="#CCCCCC"/>
<path d="M278.051 181.327C278.727 178.901 280.333 176.841 282.52 175.593C284.706 174.345 287.297 174.011 289.729 174.663C290.226 174.801 290.71 174.981 291.177 175.199L307.164 160.65L318.282 168.14L295.42 188.371C294.388 190.232 292.762 191.695 290.803 192.526C288.844 193.357 286.662 193.509 284.607 192.958C283.409 192.63 282.289 192.068 281.31 191.305C280.331 190.541 279.513 189.591 278.903 188.51C278.293 187.428 277.904 186.236 277.758 185.003C277.612 183.771 277.711 182.521 278.051 181.327Z" fill="#FFB8B8"/>
<path d="M304.632 181.511C303.595 181.512 302.59 181.153 301.787 180.496L295.482 175.345C294.957 174.915 294.535 174.372 294.249 173.757C293.963 173.141 293.82 172.469 293.831 171.791C293.841 171.112 294.005 170.444 294.31 169.838C294.615 169.232 295.053 168.702 295.592 168.289L322.033 148.01C322.347 147.768 322.552 147.413 322.605 147.02C322.658 146.628 322.555 146.231 322.317 145.915L305.996 124.339C304.1 121.84 303.149 118.752 303.312 115.619C303.474 112.487 304.739 109.513 306.884 107.224C309.142 104.785 312.235 103.284 315.549 103.019C318.862 102.754 322.154 103.745 324.772 105.794L324.875 105.903L341.917 130.305C343.76 131.75 345.244 133.601 346.253 135.714C347.262 137.828 347.768 140.146 347.734 142.487C347.699 144.829 347.123 147.13 346.052 149.212C344.98 151.295 343.442 153.101 341.557 154.49L307.311 180.629C306.536 181.202 305.597 181.511 304.632 181.511Z" fill="#CCCCCC"/>
<path d="M269.965 57.0331V44.8469L291.72 35.3469L312.465 44.8469V57.0331C312.465 57.5635 312.254 58.0722 311.879 58.4473C311.504 58.8224 310.995 59.0331 310.465 59.0331H271.965C271.434 59.0331 270.926 58.8224 270.551 58.4473C270.176 58.0722 269.965 57.5635 269.965 57.0331Z" fill="#2F2E41"/>
<path d="M290.723 27.8996C287.524 17.6611 294.242 5.92728 304.173 1.87461C314.105 -2.17806 325.987 0.654881 334.367 7.3505C342.747 14.0461 347.947 24.0749 350.702 34.4417C353.457 44.8084 353.98 55.6185 354.488 66.333C366.69 68.5744 374.991 83.0473 370.764 94.7114C366.537 106.375 350.891 112.17 340.086 106.074C329.281 99.9772 326.151 83.5891 333.95 73.94C337.64 69.3743 339.701 63.7079 339.807 57.8385C339.913 51.9691 338.058 46.232 334.535 41.536C331.012 36.84 326.024 33.4535 320.359 31.9128C314.695 30.3721 308.678 30.7654 303.262 33.0303C297.248 35.5452 289.702 29.0109 290.723 27.8996Z" fill="#2F2E41"/>
</svg>
