<svg width="702" height="510" viewBox="0 0 702 510" fill="none" xmlns="http://www.w3.org/2000/svg">
<g clip-path="url(#clip0_170:175)">
<path d="M652.435 458.963H566.763V508.499H652.435V458.963Z" fill="#00BFA6"/>
<path d="M476.51 497.039C475.742 499.66 475.385 502.717 476.982 504.932C477.864 506.041 479.026 506.895 480.348 507.403C483.747 508.737 487.406 509.275 491.044 508.976C491.741 509.009 492.437 508.896 493.088 508.645C493.74 508.395 494.332 508.012 494.828 507.52C503.27 500.516 508.979 490.755 510.953 479.951C511.113 479.393 511.083 478.798 510.868 478.26C510.59 477.842 510.201 477.511 509.744 477.305C507.866 476.125 505.842 475.198 503.722 474.549C492.125 471.548 479.384 487.24 476.51 497.039Z" fill="#2F2E41"/>
<path d="M598.134 460.302C599.692 462.115 601.612 463.581 603.771 464.604C604.854 465.107 606.037 465.357 607.23 465.337C608.423 465.316 609.596 465.026 610.661 464.487C613.852 462.667 614.756 458.437 614.501 454.766C614.03 447.977 610.794 441.859 607.076 436.313C605.899 434.558 603.295 429.336 601.009 429.271C599.923 429.24 595.862 433.186 594.759 433.937C590.728 436.681 587.935 438.644 588.774 443.911C589.71 449.785 594.189 456.072 598.134 460.302Z" fill="#2F2E41"/>
<path d="M562.789 179.505C545.628 178.171 529.236 178.666 512.043 177.781C510.599 177.707 511.295 194.282 509.798 203.282C509.029 207.908 483.151 478.9 486.363 479.449C494.611 481.178 502.954 482.417 511.348 483.158C514.753 483.458 546.492 306.886 544.972 292.537C549.127 298.645 563.763 326.848 571.164 359.29C580.929 402.094 583.804 450.509 589.874 447.794C593.781 442.416 599.083 438.214 605.205 435.641C615.237 431.902 598.979 226.001 581.801 216.535C581.59 210.509 581.37 204.334 579.103 198.748C575.907 190.869 569.601 184.578 562.789 179.505Z" fill="#2F2E41"/>
<path d="M701.675 510H228.766V508.199H702L701.675 510Z" fill="#3F3D56"/>
<path d="M388.006 243.032H0V319.809H388.006V243.032Z" fill="#E6E6E6"/>
<path d="M388.006 121.715H0V198.492H388.006V121.715Z" fill="#E6E6E6"/>
<path d="M388.006 0H0V76.7769H388.006V0Z" fill="#E6E6E6"/>
<path d="M8.27148 68.4866H379.734V8.2901H8.27148V68.4866Z" fill="white"/>
<path d="M8.27148 190.47H379.734V130.273H8.27148V190.47Z" fill="white"/>
<path d="M8.27148 311.518H379.734V251.322H8.27148V311.518Z" fill="white"/>
<path d="M40.7906 60.8233C53.4281 60.8233 63.6729 50.5557 63.6729 37.8899C63.6729 25.2242 53.4281 14.9565 40.7906 14.9565C28.153 14.9565 17.9082 25.2242 17.9082 37.8899C17.9082 50.5557 28.153 60.8233 40.7906 60.8233Z" fill="#00BFA6"/>
<path d="M321.348 28.9159H95.5088V33.9014H321.348V28.9159Z" fill="#00BFA6"/>
<path d="M321.348 41.8784H95.5088V46.8639H321.348V41.8784Z" fill="#00BFA6"/>
<path d="M40.7906 183.536C53.4281 183.536 63.6729 173.268 63.6729 160.603C63.6729 147.937 53.4281 137.669 40.7906 137.669C28.153 137.669 17.9082 147.937 17.9082 160.603C17.9082 173.268 28.153 183.536 40.7906 183.536Z" fill="#CCCCCC"/>
<path d="M321.348 151.629H95.5088V156.614H321.348V151.629Z" fill="#CCCCCC"/>
<path d="M321.348 164.591H95.5088V169.576H321.348V164.591Z" fill="#CCCCCC"/>
<path d="M40.7906 304.852C53.4281 304.852 63.6729 294.584 63.6729 281.919C63.6729 269.253 53.4281 258.985 40.7906 258.985C28.153 258.985 17.9082 269.253 17.9082 281.919C17.9082 294.584 28.153 304.852 40.7906 304.852Z" fill="#CCCCCC"/>
<path d="M321.348 272.945H95.5088V277.93H321.348V272.945Z" fill="#CCCCCC"/>
<path d="M321.348 285.907H95.5088V290.893H321.348V285.907Z" fill="#CCCCCC"/>
<path d="M558.561 48.0632C549.654 32.9796 532.032 32.2766 532.032 32.2766C532.032 32.2766 514.861 30.0759 503.846 53.0484C493.579 74.4607 479.408 95.1347 501.564 100.147L505.566 87.6633L508.045 101.077C511.199 101.304 514.364 101.358 517.525 101.239C541.252 100.471 563.849 101.464 563.121 92.9302C562.154 81.5864 567.132 62.5767 558.561 48.0632Z" fill="#2F2E41"/>
<path d="M525.703 99.4548C525.746 101.153 525.733 102.943 524.891 104.417C523.222 107.339 519.148 107.776 516.698 110.08C514.121 112.501 513.829 116.432 513.707 119.971C513.578 123.67 513.469 127.491 514.816 130.938C515.641 132.836 516.684 134.632 517.924 136.289C519.42 138.45 520.93 140.602 522.454 142.744C523.268 143.95 524.175 145.091 525.166 146.155C527.895 148.941 531.638 150.483 535.376 151.584C537.791 152.295 540.398 152.848 542.794 152.076C544.379 151.456 545.84 150.556 547.108 149.418C548.96 148.086 550.605 146.488 551.99 144.674C554.002 141.75 554.559 138.088 554.976 134.56C556.209 124.128 556.689 113.62 556.412 103.118C556.462 101.974 556.258 100.832 555.813 99.7773C554.572 97.349 551.249 96.8306 549.497 94.7418C548 92.956 547.939 90.4073 547.952 88.0747L547.984 82.1367C548.037 81.6364 547.936 81.132 547.696 80.69C547.479 80.452 547.217 80.2593 546.926 80.1229C546.634 79.9865 546.318 79.9092 545.997 79.8953C542.315 79.2829 538.581 79.0325 534.85 79.1479C531.825 79.2406 526.022 78.9868 523.406 80.6753C521.032 82.2079 524.004 86.441 524.554 88.8187C525.294 92.3163 525.678 95.8797 525.703 99.4548Z" fill="#FFB8B8"/>
<path d="M532.645 89.2575C545.871 89.2575 556.593 78.5118 556.593 65.2564C556.593 52.0009 545.871 41.2552 532.645 41.2552C519.419 41.2552 508.697 52.0009 508.697 65.2564C508.697 78.5118 519.419 89.2575 532.645 89.2575Z" fill="#FFB8B8"/>
<path d="M527.222 117.163C514.862 77.9071 508.35 133.045 500.558 148.1C500.63 158.481 500.911 187.19 503.333 198.072C512.743 240.345 559.341 237.026 573.353 201.375C580.818 182.383 564.259 135.317 564.82 113.356C544.3 92.5165 543.034 158.629 527.222 117.163Z" fill="#00BFA6"/>
<path d="M513.655 103.698C486.873 116.744 499.65 151.794 489.942 174.732C482.189 206.203 462.471 216.099 507.554 216.832C517.268 188.066 507.78 156.819 521.024 127.529C521.936 116.057 525.863 111.743 525.515 102.028C522.918 97.9955 516.191 102.449 513.655 103.698Z" fill="#575A88"/>
<path d="M554.623 46.6094L537.214 37.4691L513.172 41.2083L508.198 63.2271L520.58 62.7491L524.039 54.6598V62.6154L529.752 62.3957L533.069 49.5172L535.141 63.2271L555.453 62.811L554.623 46.6094Z" fill="#2F2E41"/>
<path d="M543.854 114.747C557.639 113.134 544.2 96.543 555.141 96.8249C587.903 91.3022 597.705 111.639 585.245 140.024C573.824 162.759 614.225 194.697 591.655 207.418C583.645 210.365 572.175 219.635 564.347 215.599C551.778 183.939 551.324 147.765 543.854 114.747Z" fill="#575A88"/>
<path d="M582.222 205.13C577.422 207.43 573.626 211.088 570.413 215.338C569.733 216.238 570.645 217.916 572.683 217.889C574.58 217.863 575.713 215.426 577.609 215.4C578.189 220.481 579.238 225.496 580.744 230.381C584.528 227.051 586.793 222.364 588.961 217.809L593.245 208.805C594.818 205.5 596.392 202.193 597.81 198.818C598.195 198.029 598.433 197.175 598.513 196.3C598.699 190.492 592.985 190.457 590.521 194.092C587.826 198.068 586.986 202.846 582.222 205.13Z" fill="#FFB8B8"/>
<path d="M583.207 105.271C586.87 109.086 590.559 112.933 593.403 117.395C596.247 121.858 610.957 161.99 611.554 162.841C613.678 165.982 611.197 174.103 611.072 174.568C610.826 176.026 607.757 190.587 606.988 193.802C606.45 196.052 606.457 198.395 606.105 200.682C605.753 202.969 604.96 205.32 603.203 206.82C602.979 207.036 602.704 207.19 602.404 207.269C601.429 207.459 600.765 206.329 600.424 205.394C599.361 202.484 598.288 199.516 596.415 197.05C594.542 194.584 591.703 192.653 588.61 192.663C588.354 192.049 588.248 191.384 588.301 190.722C588.354 190.059 588.564 189.419 588.913 188.854C589.533 187.683 590.441 186.69 591.124 185.555C591.99 184.009 592.579 182.322 592.864 180.572C594.391 172.531 592.854 164.209 588.556 157.249C587.557 155.598 586.349 154.084 584.962 152.745C583.452 151.327 581.685 150.187 580.291 148.654C578.141 146.104 576.842 142.944 576.574 139.617C576.317 136.311 576.405 132.988 576.836 129.701C577.464 123.178 578.269 116.645 579.199 110.159C579.271 109.314 579.489 108.488 579.844 107.718C580.574 106.354 581.809 105.929 583.207 105.271Z" fill="#575A88"/>
<path d="M503.252 195.395C500.788 191.76 495.074 191.795 495.26 197.604C495.339 198.479 495.578 199.332 495.963 200.121C497.381 203.496 498.955 206.803 500.528 210.109L504.812 219.112C506.98 223.667 509.245 228.355 513.029 231.684C514.534 226.799 515.584 221.784 516.164 216.704C518.06 216.729 519.193 219.166 521.09 219.192C523.128 219.219 524.04 217.541 523.36 216.642C520.147 212.392 516.35 208.733 511.551 206.433C506.787 204.149 505.947 199.371 503.252 195.395Z" fill="#FFB8B8"/>
<path d="M513.928 109.021C514.283 109.791 514.502 110.617 514.573 111.462C515.503 117.949 516.309 124.481 516.936 131.004C517.367 134.291 517.455 137.614 517.198 140.92C516.93 144.247 515.631 147.407 513.481 149.957C512.087 151.49 510.321 152.63 508.811 154.049C507.423 155.388 506.215 156.901 505.216 158.552C500.918 165.512 499.381 173.834 500.908 181.875C501.193 183.625 501.782 185.312 502.648 186.858C503.331 187.993 504.24 188.986 504.859 190.157C505.209 190.722 505.419 191.362 505.471 192.025C505.524 192.687 505.418 193.353 505.162 193.966C502.07 193.956 499.231 195.888 497.357 198.354C495.484 200.82 494.411 203.787 493.349 206.698C493.007 207.632 492.343 208.763 491.369 208.572C491.068 208.493 490.793 208.339 490.569 208.124C488.812 206.623 488.02 204.272 487.668 201.985C487.315 199.698 487.322 197.355 486.784 195.105C486.015 191.89 482.946 177.329 482.701 175.871C482.575 175.406 480.095 167.285 482.218 164.144C482.815 163.293 497.525 123.161 500.369 118.699C503.213 114.236 506.902 110.389 510.566 106.574C511.964 107.232 513.198 107.657 513.928 109.021Z" fill="#575A88"/>
</g>
<defs>
<clipPath id="clip0_170:175">
<rect width="702" height="510" fill="white"/>
</clipPath>
</defs>
</svg>
