<svg width="120" height="24" viewBox="0 0 120 24" fill="none" xmlns="http://www.w3.org/2000/svg">
<path d="M12.0003 17.5196L16.1503 20.0296C16.9103 20.4896 17.8403 19.8096 17.6403 18.9496L16.5403 14.2296L20.2103 11.0496C20.8803 10.4696 20.5203 9.36959 19.6403 9.29959L14.8103 8.88959L12.9203 4.42959C12.5803 3.61959 11.4203 3.61959 11.0803 4.42959L9.19032 8.87959L4.36032 9.28959C3.48032 9.35959 3.12032 10.4596 3.79032 11.0396L7.46032 14.2196L6.36032 18.9396C6.16032 19.7996 7.09032 20.4796 7.85032 20.0196L12.0003 17.5196Z" fill="#00BFA6"/>
<path d="M84.0003 17.5196L88.1503 20.0296C88.9103 20.4896 89.8403 19.8096 89.6403 18.9496L88.5403 14.2296L92.2103 11.0496C92.8803 10.4696 92.5203 9.36959 91.6403 9.29959L86.8103 8.88959L84.9203 4.42959C84.5803 3.61959 83.4203 3.61959 83.0803 4.42959L81.1903 8.87959L76.3603 9.28959C75.4803 9.35959 75.1203 10.4596 75.7903 11.0396L79.4603 14.2196L78.3603 18.9396C78.1603 19.7996 79.0903 20.4796 79.8503 20.0196L84.0003 17.5196Z" fill="#00BFA6"/>
<path d="M60.0003 17.5196L64.1503 20.0296C64.9103 20.4896 65.8403 19.8096 65.6403 18.9496L64.5403 14.2296L68.2103 11.0496C68.8803 10.4696 68.5203 9.36959 67.6403 9.29959L62.8103 8.88959L60.9203 4.42959C60.5803 3.61959 59.4203 3.61959 59.0803 4.42959L57.1903 8.87959L52.3603 9.28959C51.4803 9.35959 51.1203 10.4596 51.7903 11.0396L55.4603 14.2196L54.3603 18.9396C54.1603 19.7996 55.0903 20.4796 55.8503 20.0196L60.0003 17.5196Z" fill="#00BFA6"/>
<path d="M36.0003 17.5196L40.1503 20.0296C40.9103 20.4896 41.8403 19.8096 41.6403 18.9496L40.5403 14.2296L44.2103 11.0496C44.8803 10.4696 44.5203 9.36959 43.6403 9.29959L38.8103 8.88959L36.9203 4.42959C36.5803 3.61959 35.4203 3.61959 35.0803 4.42959L33.1903 8.87959L28.3603 9.28959C27.4803 9.35959 27.1203 10.4596 27.7903 11.0396L31.4603 14.2196L30.3603 18.9396C30.1603 19.7996 31.0903 20.4796 31.8503 20.0196L36.0003 17.5196Z" fill="#00BFA6"/>
<path d="M108 17.5196L112.15 20.0296C112.91 20.4896 113.84 19.8096 113.64 18.9496L112.54 14.2296L116.21 11.0496C116.88 10.4696 116.52 9.36959 115.64 9.29959L110.81 8.88959L108.92 4.42959C108.58 3.61959 107.42 3.61959 107.08 4.42959L105.19 8.87959L100.36 9.28959C99.4803 9.35959 99.1203 10.4596 99.7903 11.0396L103.46 14.2196L102.36 18.9396C102.16 19.7996 103.09 20.4796 103.85 20.0196L108 17.5196Z" fill="#00BFA6"/>
</svg>
