<svg width="90" height="90" viewBox="0 0 90 90" fill="none" xmlns="http://www.w3.org/2000/svg">
<g clip-path="url(#clip0)">
<path d="M73.1762 51.7605L10.4205 63.3818C8.38172 63.7594 7.02051 65.8019 7.38015 67.9439L8.03132 71.8224C8.39095 73.9644 10.3352 75.3948 12.374 75.0172L75.1297 63.3959C77.1685 63.0184 78.5297 60.9759 78.1701 58.8339L77.5189 54.9554C77.1593 52.8134 75.215 51.383 73.1762 51.7605Z" stroke="white" stroke-width="4" stroke-linecap="round" stroke-linejoin="round"/>
<path d="M82.4299 70.8902L74.9331 63.0135" stroke="white" stroke-width="4" stroke-linecap="round" stroke-linejoin="round"/>
<path d="M14.9586 0L49.4158 36.2032L41.4636 44.5565L17.6087 19.4948C12.3085 13.922 12.3085 11.1376 12.3085 8.35323C12.3085 5.56882 14.9586 0 14.9586 0Z" stroke="white" stroke-width="4" stroke-linecap="round" stroke-linejoin="round"/>
<path d="M14.9586 0L48.6943 35.4451L65.5621 53.1676" stroke="white" stroke-width="4" stroke-linecap="round" stroke-linejoin="round"/>
</g>
<defs>
<clipPath id="clip0">
<rect width="90" height="90" fill="white"/>
</clipPath>
</defs>
</svg>
