<svg width="156" height="153" viewBox="0 0 156 153" fill="none" xmlns="http://www.w3.org/2000/svg">
<mask id="path-1-inside-1" fill="white">
<path fill-rule="evenodd" clip-rule="evenodd" d="M156 78C156 34.9218 121.078 0 78 0C34.9218 0 0 34.9218 0 78H156Z"/>
</mask>
<path d="M156 78V81H159V78H156ZM0 78H-3V81H0V78ZM78 3C119.421 3 153 36.5786 153 78H159C159 33.2649 122.735 -3 78 -3V3ZM3 78C3 36.5786 36.5786 3 78 3V-3C33.2649 -3 -3 33.2649 -3 78H3ZM0 81H156V75H0V81Z" fill="white" mask="url(#path-1-inside-1)"/>
<mask id="path-3-inside-2" fill="white">
<path fill-rule="evenodd" clip-rule="evenodd" d="M0 75C0 118.078 34.9218 153 78 153C121.078 153 156 118.078 156 75H0Z"/>
</mask>
<path d="M0 75V72H-3V75H0ZM156 75H159V72H156V75ZM78 150C36.5786 150 3 116.421 3 75H-3C-3 119.735 33.2649 156 78 156V150ZM153 75C153 116.421 119.421 150 78 150V156C122.735 156 159 119.735 159 75H153ZM156 72H0V78H156V72Z" fill="black" mask="url(#path-3-inside-2)"/>
<g clip-path="url(#clip0)">
<path d="M88.7324 63.7794C88.1318 63.6192 87.6194 63.227 87.308 62.6891C86.9965 62.1511 86.9115 61.5115 87.0717 60.9109L95.3264 29.966C95.4058 29.6686 95.5429 29.3897 95.7301 29.1454C95.9172 28.901 96.1506 28.6958 96.417 28.5416C96.6834 28.3875 96.9776 28.2873 97.2828 28.2468C97.5879 28.2063 97.898 28.2263 98.1954 28.3056C98.4928 28.385 98.7717 28.5221 99.0161 28.7093C99.2605 28.8964 99.4656 29.1298 99.6198 29.3963C99.774 29.6627 99.8742 29.9568 99.9147 30.262C99.9552 30.5671 99.9352 30.8772 99.8558 31.1746L91.6011 62.1189C91.5219 62.4164 91.3848 62.6953 91.1977 62.9398C91.0106 63.1842 90.7772 63.3894 90.5108 63.5436C90.2444 63.6978 89.9502 63.798 89.645 63.8384C89.3399 63.8789 89.0298 63.8588 88.7324 63.7794ZM133.372 69.227C133.406 69.5329 133.38 69.8426 133.294 70.1382C133.208 70.4338 133.065 70.7097 132.872 70.95C132.68 71.1902 132.442 71.3902 132.172 71.5385C131.903 71.6868 131.606 71.7805 131.3 71.8143L87.7311 76.6264L82.2412 97.206C85.2554 98.6135 87.6333 101.099 88.9065 104.172C90.1798 107.245 90.2561 110.684 89.1205 113.811C87.985 116.937 85.7197 119.526 82.771 121.066C79.8223 122.606 76.4039 122.986 73.189 122.131C69.9741 121.276 67.1957 119.248 65.4012 116.447C63.6066 113.646 62.9259 110.275 63.4932 106.997C64.0604 103.719 65.8345 100.772 68.4659 98.7373C71.0974 96.7022 74.3955 95.7262 77.7107 96.0015L82.7322 77.1786L63.3686 79.3174C63.1422 82.627 61.685 85.7318 59.2838 88.0207C56.8827 90.3095 53.7117 91.6165 50.3951 91.6843C47.0785 91.7521 43.8567 90.5758 41.3641 88.387C38.8714 86.1982 37.2885 83.1554 36.9271 79.8579C36.5656 76.5604 37.4517 73.247 39.411 70.5702C41.3703 67.8934 44.2608 66.047 47.5133 65.3947C50.7658 64.7424 54.1446 65.3314 56.9846 67.0458C59.8245 68.7601 61.9198 71.4755 62.8578 74.6574L130.786 67.1545C131.404 67.0863 132.023 67.2664 132.508 67.655C132.993 68.0437 133.304 68.6091 133.372 69.227ZM56.6427 72.8199C55.5347 71.531 54.0694 70.5996 52.432 70.1435C50.7947 69.6873 49.0589 69.727 47.4441 70.2574C45.8293 70.7878 44.408 71.7851 43.36 73.1233C42.312 74.4614 41.6844 76.0803 41.5565 77.7751C41.4285 79.47 41.8061 81.1647 42.6413 82.6451C43.4765 84.1254 44.732 85.3247 46.2489 86.0915C47.7658 86.8583 49.476 87.1581 51.1632 86.9529C52.8505 86.7477 54.439 86.0468 55.7279 84.9388C57.454 83.4516 58.5197 81.3405 58.6912 79.0685C58.8627 76.7966 58.126 74.5494 56.6427 72.8199ZM83.1252 103.627C82.0172 102.338 80.5519 101.407 78.9146 100.95C77.2772 100.494 75.5414 100.534 73.9266 101.064C72.3118 101.595 70.8906 102.592 69.8426 103.93C68.7946 105.268 68.1669 106.887 68.039 108.582C67.9111 110.277 68.2886 111.972 69.1238 113.452C69.9591 114.932 71.2145 116.132 72.7314 116.898C74.2483 117.665 75.9585 117.965 77.6458 117.76C79.333 117.555 80.9215 116.854 82.2104 115.746C83.9365 114.259 85.0022 112.147 85.1737 109.875C85.3452 107.603 84.6085 105.356 83.1252 103.627Z" fill="white"/>
</g>
<defs>
<clipPath id="clip0">
<rect width="100" height="100" fill="white" transform="translate(13 71.1877) rotate(-40.6833)"/>
</clipPath>
</defs>
</svg>
