<svg width="156" height="156" viewBox="0 0 156 156" fill="none" xmlns="http://www.w3.org/2000/svg">
<path fill-rule="evenodd" clip-rule="evenodd" d="M156 78C156 34.9218 121.078 0 78 0C34.9218 0 0 34.9218 0 78H156Z" fill="white"/>
<path fill-rule="evenodd" clip-rule="evenodd" d="M0 78C0 121.078 34.9218 156 78 156C121.078 156 156 121.078 156 78H0Z" fill="black"/>
<path fill-rule="evenodd" clip-rule="evenodd" d="M30.2169 78.7949C29.9872 80.0502 29.9377 81.3421 30.0791 82.6316C30.4406 85.9291 32.0234 88.9718 34.5161 91.1607C37.0088 93.3495 40.2305 94.5258 43.5471 94.458C46.8637 94.3902 50.0347 93.0832 52.4359 90.7944C54.837 88.5055 56.2942 85.4007 56.5206 82.0911L75.8842 79.9523L70.8627 98.7751C67.5475 98.4999 64.2494 99.4759 61.618 101.511C58.9865 103.546 57.2125 106.493 56.6452 109.771C56.078 113.049 56.7587 116.42 58.5532 119.221C60.3478 122.022 63.1261 124.05 66.341 124.904C69.5559 125.759 72.9743 125.379 75.923 123.839C78.8718 122.299 81.137 119.711 82.2726 116.584C83.4082 113.458 83.3318 110.019 82.0585 106.946C80.7853 103.872 78.4074 101.387 75.3932 99.9797L80.8831 79.4L86.3619 78.7949H51.5262C51.8106 79.7743 51.9214 80.8057 51.8432 81.8422C51.6717 84.1142 50.606 86.2253 48.8799 87.7125C47.591 88.8205 46.0025 89.5214 44.3152 89.7266C42.628 89.9318 40.9178 89.632 39.4009 88.8652C37.884 88.0984 36.6286 86.899 35.7933 85.4187C34.9581 83.9384 34.5805 82.2437 34.7085 80.5488C34.7535 79.9518 34.8606 79.3642 35.0262 78.7949H30.2169ZM72.0666 103.724C73.7039 104.18 75.1693 105.112 76.2772 106.401C77.7605 108.13 78.4972 110.377 78.3257 112.649C78.1543 114.921 77.0886 117.032 75.3625 118.519C74.0736 119.627 72.485 120.328 70.7978 120.534C69.1105 120.739 67.4003 120.439 65.8834 119.672C64.3665 118.905 63.1111 117.706 62.2759 116.226C61.4406 114.745 61.0631 113.051 61.191 111.356C61.319 109.661 61.9466 108.042 62.9946 106.704C64.0426 105.366 65.4638 104.368 67.0786 103.838C68.6934 103.308 70.4293 103.268 72.0666 103.724Z" fill="white"/>
<path fill-rule="evenodd" clip-rule="evenodd" d="M80.46 64.4627C80.7714 65.0006 81.2838 65.3928 81.8844 65.553C82.1818 65.6324 82.4919 65.6525 82.7971 65.612C83.1022 65.5716 83.3964 65.4714 83.6628 65.3172C83.9293 65.163 84.1627 64.9578 84.3498 64.7134C84.5368 64.4689 84.6739 64.19 84.7532 63.8926L93.0078 32.9482C93.0872 32.6508 93.1072 32.3407 93.0667 32.0356C93.0262 31.7305 92.926 31.4363 92.7718 31.1699C92.6177 30.9035 92.4125 30.67 92.1681 30.4829C91.9237 30.2958 91.6449 30.1586 91.3475 30.0792C91.0501 29.9999 90.7399 29.9799 90.4348 30.0204C90.1297 30.0609 89.8355 30.1611 89.5691 30.3152C89.3027 30.4694 89.0692 30.6746 88.8821 30.919C88.695 31.1634 88.5578 31.4422 88.4785 31.7396L80.2237 62.6845C80.0636 63.2851 80.1486 63.9247 80.46 64.4627ZM126.446 71.9118C126.532 71.6162 126.558 71.3065 126.524 71.0006C126.456 70.3827 126.145 69.8173 125.66 69.4286C125.175 69.04 124.556 68.8599 123.938 68.9281L56.0098 76.431C55.0718 73.2492 52.9766 70.5337 50.1366 68.8194C47.2967 67.105 43.9178 66.516 40.6653 67.1683C37.4128 67.8206 34.5224 69.667 32.5631 72.3438C31.1679 74.2499 30.3169 76.4788 30.073 78.7949H34.799C35.0334 77.3764 35.6207 76.0351 36.5121 74.8969C37.5601 73.5587 38.9813 72.5614 40.5961 72.031C42.2109 71.5006 43.9468 71.461 45.5841 71.9171C47.2214 72.3732 48.6867 73.3046 49.7947 74.5935C50.828 75.7983 51.499 77.2543 51.753 78.7949H80.7778L80.8831 78.4L124.452 73.5879C124.758 73.5541 125.055 73.4604 125.324 73.3121C125.594 73.1638 125.832 72.9638 126.025 72.7236C126.217 72.4833 126.36 72.2075 126.446 71.9118Z" fill="black"/>
</svg>
