<svg width="90" height="74" viewBox="0 0 90 74" fill="none" xmlns="http://www.w3.org/2000/svg">
<path d="M56.6464 29.7024C56.2651 29.1452 56.1208 28.4595 56.2452 27.7959C56.3695 27.1324 56.7524 26.5454 57.3095 26.1641L86.0169 6.52211C86.2928 6.33335 86.6032 6.20079 86.9304 6.13199C87.2575 6.06319 87.595 6.0595 87.9236 6.12114C88.2522 6.18277 88.5654 6.30852 88.8454 6.49121C89.1254 6.67389 89.3666 6.90993 89.5554 7.18585C89.7441 7.46177 89.8767 7.77217 89.9455 8.09932C90.0143 8.42647 90.018 8.76397 89.9564 9.09255C89.8947 9.42113 89.769 9.73435 89.5863 10.0143C89.4036 10.2943 89.1676 10.5356 88.8916 10.7243L60.1846 30.3659C59.9088 30.5548 59.5984 30.6874 59.2713 30.7563C58.9441 30.8252 58.6066 30.8289 58.278 30.7673C57.9494 30.7057 57.6362 30.5799 57.3562 30.3972C57.0763 30.2145 56.8351 29.9784 56.6464 29.7024ZM89.5552 65.7939C89.3665 66.0699 89.1253 66.3061 88.8454 66.4888C88.5654 66.6716 88.2522 66.7974 87.9236 66.8591C87.595 66.9207 87.2575 66.917 86.9303 66.8482C86.6032 66.7793 86.2928 66.6467 86.0169 66.4579L46.7261 39.5743L27.6343 52.637C29.1203 55.9303 29.3193 59.6605 28.1921 63.0932C27.0649 66.5258 24.6932 69.4119 21.5442 71.1832C18.3952 72.9544 14.6971 73.4823 11.1782 72.6629C7.65941 71.8436 4.57493 69.7363 2.53228 66.7562C0.489639 63.7761 -0.363095 60.1391 0.14203 56.5616C0.647156 52.9841 2.47353 49.7255 5.26143 47.4274C8.04933 45.1293 11.5967 43.9585 15.2048 44.1454C18.8129 44.3323 22.2203 45.8635 24.7558 48.4373L42.218 36.49L24.7558 24.5422C22.2262 27.1076 18.8278 28.6331 15.2297 28.8182C11.6316 29.0034 8.09462 27.8347 5.31508 25.5424C2.53553 23.2502 0.714882 20.0003 0.211595 16.4328C-0.291691 12.8653 0.558857 9.23864 2.59577 6.26687C4.63269 3.29511 7.70837 1.19359 11.2172 0.376102C14.7261 -0.441387 18.4139 0.084389 21.5545 1.84991C24.6951 3.61542 27.0609 6.49275 28.1862 9.91535C29.3114 13.338 29.1146 17.0578 27.6343 20.3425L88.8921 62.2556C89.4492 62.6369 89.8321 63.2239 89.9564 63.8874C90.0808 64.551 89.9364 65.2368 89.5552 65.7939V65.7939ZM23.8165 14.4289C23.8165 12.5829 23.2691 10.7783 22.2435 9.24345C21.2179 7.70856 19.7602 6.51226 18.0548 5.80582C16.3493 5.09939 14.4726 4.91456 12.6621 5.27469C10.8516 5.63483 9.18847 6.52376 7.88316 7.82908C6.57784 9.1344 5.6889 10.7975 5.32877 12.608C4.96863 14.4185 5.15347 16.2952 5.8599 18.0007C6.56633 19.7062 7.76264 21.1639 9.29753 22.1894C10.8324 23.215 12.637 23.7624 14.483 23.7624C16.9575 23.7596 19.3299 22.7754 21.0797 21.0256C22.8294 19.2758 23.8137 16.9034 23.8165 14.4289V14.4289ZM23.8165 58.5511C23.8165 56.7051 23.2691 54.9005 22.2435 53.3656C21.2179 51.8307 19.7602 50.6344 18.0548 49.928C16.3493 49.2216 14.4726 49.0367 12.6621 49.3969C10.8516 49.757 9.18847 50.6459 7.88316 51.9513C6.57784 53.2566 5.6889 54.9197 5.32877 56.7302C4.96863 58.5407 5.15347 60.4174 5.8599 62.1229C6.56633 63.8284 7.76264 65.286 9.29753 66.3116C10.8324 67.3372 12.637 67.8846 14.483 67.8846C16.9575 67.8818 19.3299 66.8976 21.0797 65.1478C22.8294 63.398 23.8137 61.0256 23.8165 58.5511V58.5511Z" fill="white"/>
</svg>
